<svg width="568" height="568" viewBox="0 0 568 568" fill="none" xmlns="http://www.w3.org/2000/svg">
<path d="M538.782 290.938C536.99 287.59 533.5 285.499 529.702 285.499H491.861L477.053 229.248C475.862 224.724 471.772 221.572 467.094 221.572H440.476L429.655 166.051C428.711 161.214 424.475 157.723 419.547 157.723H407.167L403.441 117.386C402.951 112.087 398.507 108.035 393.186 108.035H309.728C304.407 108.035 299.963 112.088 299.473 117.386L295.747 157.723H272.313L268.585 117.386C268.095 112.087 263.651 108.035 258.33 108.035H174.816C169.495 108.035 165.051 112.088 164.561 117.386L160.833 157.723H148.454C143.526 157.723 139.289 161.214 138.346 166.051L127.525 221.572H100.907C96.2291 221.572 92.1387 224.725 90.9483 229.248L76.1396 285.499H38.2981C34.5001 285.499 31.0101 287.59 29.2182 290.938C27.4264 294.287 27.6231 298.349 29.73 301.51L91.5188 394.188C93.4281 397.053 96.6442 398.774 100.087 398.774H467.913C471.356 398.774 474.572 397.053 476.481 394.188L538.27 301.51C540.377 298.349 540.574 294.287 538.782 290.938V290.938ZM319.119 128.63H383.795L385.728 149.563H317.185L319.119 128.63ZM184.206 128.63H248.939L250.874 149.563H182.271L184.206 128.63ZM156.939 178.319H411.061L419.491 221.571H363.125V204.579C363.125 198.892 358.514 194.281 352.826 194.281C347.139 194.281 342.528 198.892 342.528 204.579V221.571H294.299V204.579C294.299 198.892 289.689 194.281 284.001 194.281C278.313 194.281 273.703 198.892 273.703 204.579V221.571H225.474V204.579C225.474 198.892 220.863 194.281 215.176 194.281C209.488 194.281 204.877 198.892 204.877 204.579V221.571H148.509L156.939 178.319ZM462.402 378.177H105.597L57.5401 306.096H237.142C242.83 306.096 247.441 301.484 247.441 295.798C247.441 290.111 242.83 285.499 237.142 285.499H185.309V264.996C185.309 259.309 180.698 254.698 175.011 254.698C169.323 254.698 164.713 259.309 164.713 264.996V285.499H97.4361L108.843 242.168H459.156L470.563 285.499H403.286V264.996C403.286 259.309 398.676 254.698 392.988 254.698C387.3 254.698 382.69 259.309 382.69 264.996V285.499H330.512C324.825 285.499 320.214 290.111 320.214 295.798C320.214 301.484 324.825 306.096 330.512 306.096H510.459L462.402 378.177Z" fill="#565778"/>
<path d="M139.826 349.439C145.514 349.439 150.125 344.829 150.125 339.141C150.125 333.454 145.514 328.843 139.826 328.843C134.139 328.843 129.528 333.454 129.528 339.141C129.528 344.829 134.139 349.439 139.826 349.439Z" fill="#565778"/>
<path d="M181.019 349.439C186.706 349.439 191.317 344.829 191.317 339.141C191.317 333.454 186.706 328.843 181.019 328.843C175.331 328.843 170.721 333.454 170.721 339.141C170.721 344.829 175.331 349.439 181.019 349.439Z" fill="#565778"/>
<path d="M222.211 349.439C227.899 349.439 232.509 344.829 232.509 339.141C232.509 333.454 227.899 328.843 222.211 328.843C216.524 328.843 211.913 333.454 211.913 339.141C211.913 344.829 216.524 349.439 222.211 349.439Z" fill="#565778"/>
<path d="M263.404 349.439C269.091 349.439 273.702 344.829 273.702 339.141C273.702 333.454 269.091 328.843 263.404 328.843C257.716 328.843 253.105 333.454 253.105 339.141C253.105 344.829 257.716 349.439 263.404 349.439Z" fill="#565778"/>
<path d="M304.596 349.439C310.283 349.439 314.894 344.829 314.894 339.141C314.894 333.454 310.283 328.843 304.596 328.843C298.908 328.843 294.298 333.454 294.298 339.141C294.298 344.829 298.908 349.439 304.596 349.439Z" fill="#565778"/>
<path d="M345.789 349.439C351.476 349.439 356.087 344.829 356.087 339.141C356.087 333.454 351.476 328.843 345.789 328.843C340.101 328.843 335.491 333.454 335.491 339.141C335.491 344.829 340.101 349.439 345.789 349.439Z" fill="#565778"/>
<path d="M386.981 349.439C392.669 349.439 397.279 344.829 397.279 339.141C397.279 333.454 392.669 328.843 386.981 328.843C381.294 328.843 376.683 333.454 376.683 339.141C376.683 344.829 381.294 349.439 386.981 349.439Z" fill="#565778"/>
<path d="M428.174 349.439C433.861 349.439 438.472 344.829 438.472 339.141C438.472 333.454 433.861 328.843 428.174 328.843C422.486 328.843 417.875 333.454 417.875 339.141C417.875 344.829 422.486 349.439 428.174 349.439Z" fill="#565778"/>
<path d="M284 306.53C289.687 306.53 294.298 301.92 294.298 296.232C294.298 290.545 289.687 285.934 284 285.934C278.312 285.934 273.702 290.545 273.702 296.232C273.702 301.92 278.312 306.53 284 306.53Z" fill="#565778"/>
<path d="M509.014 418.774C493.76 418.774 485.551 426.287 479.557 431.773C474.381 436.511 471.257 439.37 464.005 439.37C456.754 439.37 453.63 436.511 448.454 431.773C442.459 426.287 434.251 418.774 418.997 418.774C403.745 418.774 395.536 426.287 389.542 431.774C384.368 436.511 381.243 439.37 373.994 439.37C366.744 439.37 363.62 436.511 358.445 431.773C352.452 426.287 344.242 418.774 328.99 418.774C313.737 418.774 305.529 426.287 299.535 431.774C294.36 436.511 291.236 439.37 283.987 439.37C276.738 439.37 273.614 436.511 268.44 431.774C262.446 426.287 254.238 418.774 238.986 418.774C223.735 418.774 215.527 426.288 209.534 431.774C204.361 436.511 201.237 439.37 193.99 439.37C186.742 439.37 183.618 436.511 178.443 431.774C172.45 426.287 164.241 418.774 148.99 418.774C133.738 418.774 125.53 426.287 119.535 431.774C114.36 436.511 111.236 439.37 103.987 439.37C96.7381 439.37 93.6146 436.511 88.4388 431.774C82.4453 426.287 74.2367 418.774 58.9851 418.774C53.2975 418.774 48.687 423.385 48.687 429.072C48.687 434.758 53.2975 439.37 58.9851 439.37C66.234 439.37 69.3574 442.229 74.5322 446.966C80.5257 452.453 88.7344 459.966 103.987 459.966C119.239 459.966 127.447 452.453 133.442 446.966C138.616 442.229 141.741 439.37 148.99 439.37C156.239 439.37 159.362 442.229 164.537 446.966C170.53 452.453 178.739 459.966 193.99 459.966C209.242 459.966 217.45 452.452 223.442 446.966C228.616 442.229 231.739 439.37 238.986 439.37C246.235 439.37 249.358 442.229 254.533 446.966C260.527 452.453 268.735 459.966 283.987 459.966C299.239 459.966 307.447 452.453 313.441 446.966C318.616 442.229 321.741 439.37 328.99 439.37C336.239 439.37 339.363 442.229 344.539 446.966C350.533 452.453 358.742 459.966 373.994 459.966C389.247 459.966 397.455 452.453 403.449 446.967C408.624 442.229 411.748 439.37 418.997 439.37C426.249 439.37 429.373 442.229 434.549 446.967C440.544 452.453 448.753 459.966 464.006 459.966C479.26 459.966 487.469 452.453 493.463 446.967C498.639 442.229 501.764 439.37 509.015 439.37C514.703 439.37 519.313 434.758 519.313 429.072C519.313 423.385 514.702 418.774 509.014 418.774Z" fill="#565778"/>
</svg>
