<svg width="568" height="568" viewBox="0 0 568 568" fill="none" xmlns="http://www.w3.org/2000/svg">
<g clip-path="url(#clip0_8_91)">
<path d="M452.293 112.846C447.697 112.846 443.971 116.572 443.971 121.168V136.486H427.979V121.168C427.979 116.572 424.253 112.846 419.658 112.846C415.062 112.846 411.336 116.572 411.336 121.168V168.447C411.336 173.043 415.062 176.768 419.658 176.768C424.253 176.768 427.979 173.043 427.979 168.447V153.129H443.971V168.447C443.971 173.043 447.697 176.768 452.293 176.768C456.888 176.768 460.614 173.043 460.614 168.447V121.168C460.614 116.572 456.888 112.846 452.293 112.846V112.846Z" fill="#565778"/>
<path d="M472.732 81.7167H399.11C387.382 81.7167 377.841 91.2575 377.841 102.984V136.486H361.941V90.3346C361.941 85.7385 358.215 82.0129 353.619 82.0129H82.3217C77.7256 82.0129 74 85.7385 74 90.3346V477.962C74 482.558 77.7256 486.283 82.3217 486.283H353.62C358.215 486.283 361.942 482.558 361.942 477.962V329.492C361.942 324.896 358.215 321.17 353.62 321.17C349.025 321.17 345.299 324.896 345.299 329.492V469.64H263.741V424.15C263.741 419.554 260.015 415.829 255.419 415.829H180.524C175.928 415.829 172.202 419.554 172.202 424.15V469.64H90.6433V98.6562H345.299V253.14C345.299 257.736 349.025 261.462 353.62 261.462C358.215 261.462 361.942 257.736 361.942 253.14V153.129H377.842V186.383C377.842 198.11 387.383 207.651 399.111 207.651H472.732C484.46 207.651 494.001 198.11 494.001 186.383V102.985C494 91.2575 484.459 81.7167 472.732 81.7167V81.7167ZM188.845 432.472H247.096V469.64H188.845V432.472ZM477.357 186.383C477.357 188.933 475.282 191.008 472.732 191.008H399.11C396.56 191.008 394.485 188.933 394.485 186.383V102.985C394.485 100.435 396.559 98.3608 399.11 98.3608H472.732C475.281 98.3608 477.357 100.435 477.357 102.985V186.383Z" fill="#565778"/>
<path d="M174.423 139.411C174.423 134.815 170.697 131.089 166.101 131.089H128.376C123.78 131.089 120.055 134.815 120.055 139.411V177.135C120.055 181.731 123.78 185.457 128.376 185.457H166.101C170.697 185.457 174.423 181.731 174.423 177.135V139.411ZM157.779 168.814H136.698V147.732H157.779V168.814Z" fill="#565778"/>
<path d="M245.434 139.411C245.434 134.815 241.708 131.089 237.112 131.089H199.388C194.792 131.089 191.066 134.815 191.066 139.411V177.135C191.066 181.731 194.792 185.457 199.388 185.457H237.112C241.708 185.457 245.434 181.731 245.434 177.135V139.411ZM228.791 168.814H207.709V147.732H228.791V168.814Z" fill="#565778"/>
<path d="M315.887 139.411C315.887 134.815 312.161 131.089 307.566 131.089H269.841C265.245 131.089 261.52 134.815 261.52 139.411V177.135C261.52 181.731 265.245 185.457 269.841 185.457H307.566C312.161 185.457 315.887 181.731 315.887 177.135V139.411ZM299.244 168.814H278.163V147.732H299.244V168.814Z" fill="#565778"/>
<path d="M174.423 210.177C174.423 205.581 170.697 201.856 166.101 201.856H128.376C123.78 201.856 120.055 205.581 120.055 210.177V247.902C120.055 252.498 123.78 256.224 128.376 256.224H166.101C170.697 256.224 174.423 252.498 174.423 247.902V210.177ZM157.779 239.581H136.698V218.5H157.779V239.581Z" fill="#565778"/>
<path d="M245.434 210.177C245.434 205.581 241.708 201.856 237.112 201.856H199.388C194.792 201.856 191.066 205.581 191.066 210.177V247.902C191.066 252.498 194.792 256.224 199.388 256.224H237.112C241.708 256.224 245.434 252.498 245.434 247.902V210.177ZM228.791 239.581H207.709V218.5H228.791V239.581Z" fill="#565778"/>
<path d="M315.887 210.177C315.887 205.581 312.161 201.856 307.566 201.856H269.841C265.245 201.856 261.52 205.581 261.52 210.177V247.902C261.52 252.498 265.245 256.224 269.841 256.224H307.566C312.161 256.224 315.887 252.498 315.887 247.902V210.177ZM299.244 239.581H278.163V218.5H299.244V239.581Z" fill="#565778"/>
<path d="M174.423 280.945C174.423 276.349 170.697 272.623 166.101 272.623H128.376C123.78 272.623 120.055 276.349 120.055 280.945V318.669C120.055 323.265 123.78 326.991 128.376 326.991H166.101C170.697 326.991 174.423 323.265 174.423 318.669V280.945ZM157.779 310.348H136.698V289.266H157.779V310.348Z" fill="#565778"/>
<path d="M245.434 280.945C245.434 276.349 241.708 272.623 237.112 272.623H199.388C194.792 272.623 191.066 276.349 191.066 280.945V318.669C191.066 323.265 194.792 326.991 199.388 326.991H237.112C241.708 326.991 245.434 323.265 245.434 318.669V280.945ZM228.791 310.348H207.709V289.266H228.791V310.348Z" fill="#565778"/>
<path d="M315.887 280.945C315.887 276.349 312.161 272.623 307.566 272.623H269.841C265.245 272.623 261.52 276.349 261.52 280.945V318.669C261.52 323.265 265.245 326.991 269.841 326.991H307.566C312.161 326.991 315.887 323.265 315.887 318.669V280.945ZM299.244 310.348H278.163V289.266H299.244V310.348Z" fill="#565778"/>
<path d="M166.101 343.39H128.376C123.78 343.39 120.055 347.115 120.055 351.711V389.436C120.055 394.032 123.78 397.758 128.376 397.758H166.101C170.697 397.758 174.423 394.032 174.423 389.436V351.711C174.423 347.115 170.697 343.39 166.101 343.39ZM157.779 381.114H136.698V360.033H157.779V381.114Z" fill="#565778"/>
<path d="M237.112 343.39H199.388C194.792 343.39 191.066 347.115 191.066 351.711V389.436C191.066 394.032 194.792 397.758 199.388 397.758H237.112C241.708 397.758 245.434 394.032 245.434 389.436V351.711C245.434 347.115 241.708 343.39 237.112 343.39ZM228.791 381.114H207.709V360.033H228.791V381.114Z" fill="#565778"/>
<path d="M307.566 343.39H269.841C265.245 343.39 261.52 347.115 261.52 351.711V389.436C261.52 394.032 265.245 397.758 269.841 397.758H307.566C312.161 397.758 315.887 394.032 315.887 389.436V351.711C315.887 347.115 312.161 343.39 307.566 343.39ZM299.244 381.114H278.163V360.033H299.244V381.114Z" fill="#565778"/>
<path d="M353.64 300.019C358.236 300.019 361.962 296.293 361.962 291.697C361.962 287.101 358.236 283.375 353.64 283.375C349.044 283.375 345.318 287.101 345.318 291.697C345.318 296.293 349.044 300.019 353.64 300.019Z" fill="#565778"/>
</g>
<defs>
<clipPath id="clip0_8_91">
<rect width="420" height="420" fill="white" transform="translate(74 74)"/>
</clipPath>
</defs>
</svg>
