<svg width="568" height="568" viewBox="0 0 568 568" fill="none" xmlns="http://www.w3.org/2000/svg">
<path d="M473.641 284.964C459.841 270.554 440.226 263.241 415.336 263.229H315.235L216.513 184.16C208.456 177.706 196.687 178.154 189.138 185.199C181.495 192.334 180.218 203.791 186.1 212.442L220.626 263.229H128.929C126.227 241.721 120.805 221.765 104.913 213.273C96.6798 208.851 86.6983 210.342 80.0762 216.984C76.2143 220.857 74 226.329 74 231.996V314.472C74 332.909 88.9995 347.908 107.436 347.908H128.887C133.502 347.908 137.246 344.166 137.246 339.549C137.246 334.933 133.502 331.19 128.887 331.19H107.436C98.2179 331.19 90.7181 323.691 90.7181 314.472V231.996C90.7181 230.72 91.1545 229.55 91.916 228.788C93.2827 227.417 95.3282 227.101 97.0184 228.009C107.855 233.8 111.17 252.776 113.137 272.42C113.565 276.693 117.16 279.946 121.454 279.946H236.416H312.3H415.332C435.42 279.956 450.941 285.499 461.464 296.42C472.239 307.601 475.688 322.261 476.78 331.191H310.38C307.924 331.191 305.593 332.271 304.005 334.143L222.124 430.673C219.737 433.486 215.542 433.959 212.57 431.754C209.928 429.793 209.087 426.037 210.57 422.825L247.412 343.054C248.608 340.466 248.401 337.447 246.865 335.045C245.328 332.643 242.674 331.19 239.823 331.19H203.978C199.362 331.19 195.619 334.933 195.619 339.549C195.619 344.166 199.362 347.908 203.978 347.908H226.755L195.391 415.815C190.607 426.175 193.641 438.524 202.605 445.177C206.837 448.318 211.808 449.845 216.746 449.844C223.508 449.844 230.21 446.982 234.873 441.486L314.25 347.908H485.623C490.1 347.908 493.784 344.379 493.975 339.906C494.032 338.59 495.109 307.381 473.641 284.964V284.964ZM240.841 263.228L199.926 203.042C198.73 201.283 198.997 198.865 200.546 197.419C202.094 195.975 204.412 195.887 206.063 197.208L288.492 263.228H240.841Z" fill="#565778"/>
<path d="M108.779 152.201H126.627C132.268 159.372 140.922 163.659 150.242 163.659H184.221C192.241 163.659 199.787 160.536 205.485 154.851C211.157 149.166 214.281 141.616 214.281 133.59C214.281 117.015 200.795 103.53 184.22 103.53H176.133C170.631 91.6184 158.667 83.7509 145.094 83.7509H108.779C99.6297 83.7509 91.0333 87.3135 84.5809 93.7784C78.1152 100.245 74.5542 108.838 74.5542 117.976C74.5542 136.848 89.9073 152.201 108.779 152.201V152.201ZM96.4082 105.595C99.7075 102.29 104.101 100.47 108.78 100.47H145.096C153.217 100.47 160.21 105.968 162.1 113.842C163.003 117.6 166.364 120.249 170.229 120.249H184.222C191.58 120.249 197.565 126.234 197.565 133.591C197.565 137.157 196.175 140.513 193.664 143.03C191.137 145.553 187.783 146.942 184.222 146.942H150.242C145.315 146.942 140.808 144.241 138.478 139.894C137.022 137.178 134.191 135.484 131.111 135.484H108.779C99.1257 135.484 91.2723 127.63 91.2723 117.977C91.2723 113.304 93.0946 108.908 96.4082 105.595V105.595Z" fill="#565778"/>
<path d="M447.975 419.826H436.898C435.621 414.904 433.149 408.864 428.517 403.876C422.838 397.761 415.056 394.529 406.012 394.529H352.357C343.745 394.529 335.656 397.883 329.589 403.963C323.496 410.042 320.141 418.133 320.141 426.745C320.141 444.508 334.593 458.96 352.357 458.96H386.526C387.672 464.314 389.88 471.131 394.082 475.656C399.376 481.358 407.259 484.248 417.513 484.248H447.974C465.738 484.248 480.19 469.796 480.19 452.032C480.19 443.433 476.837 435.344 470.755 429.263C464.681 423.178 456.59 419.826 447.975 419.826V419.826ZM447.975 467.531H417.513C412.25 467.531 408.28 466.377 406.334 464.281C404.108 461.884 402.411 454.406 402.041 449.93C401.691 445.589 398.065 442.243 393.708 442.243H352.357C343.812 442.243 336.859 435.291 336.859 426.745C336.859 422.606 338.471 418.718 341.409 415.786C344.33 412.859 348.218 411.248 352.357 411.248H406.012C411.884 411.248 415.878 413.56 418.579 418.523C420.997 422.965 420.976 431.453 423.474 434.06C425.077 435.732 427.493 436.545 429.817 436.545H447.976C452.12 436.545 456.008 438.153 458.929 441.08C461.859 444.01 463.473 447.901 463.473 452.034C463.472 460.579 456.519 467.531 447.975 467.531V467.531Z" fill="#565778"/>
<path d="M207.422 310.779C212.184 310.779 216.044 306.919 216.044 302.158C216.044 297.396 212.184 293.536 207.422 293.536C202.661 293.536 198.801 297.396 198.801 302.158C198.801 306.919 202.661 310.779 207.422 310.779Z" fill="#565778"/>
<path d="M241.911 310.779C246.672 310.779 250.532 306.919 250.532 302.158C250.532 297.396 246.672 293.536 241.911 293.536C237.149 293.536 233.289 297.396 233.289 302.158C233.289 306.919 237.149 310.779 241.911 310.779Z" fill="#565778"/>
<path d="M276.398 310.779C281.16 310.779 285.02 306.919 285.02 302.158C285.02 297.396 281.16 293.536 276.398 293.536C271.637 293.536 267.777 297.396 267.777 302.158C267.777 306.919 271.637 310.779 276.398 310.779Z" fill="#565778"/>
<path d="M310.886 310.78C315.647 310.78 319.508 306.92 319.508 302.158C319.508 297.397 315.647 293.537 310.886 293.537C306.124 293.537 302.264 297.397 302.264 302.158C302.264 306.92 306.124 310.78 310.886 310.78Z" fill="#565778"/>
<path d="M345.374 310.779C350.136 310.779 353.996 306.919 353.996 302.158C353.996 297.396 350.136 293.536 345.374 293.536C340.612 293.536 336.752 297.396 336.752 302.158C336.752 306.919 340.612 310.779 345.374 310.779Z" fill="#565778"/>
<path d="M379.861 310.779C384.622 310.779 388.482 306.919 388.482 302.158C388.482 297.396 384.622 293.536 379.861 293.536C375.099 293.536 371.239 297.396 371.239 302.158C371.239 306.919 375.099 310.779 379.861 310.779Z" fill="#565778"/>
<path d="M169.017 347.87C173.575 346.489 176.149 341.675 174.769 337.118C173.388 332.562 168.574 329.987 164.017 331.368C159.46 332.749 156.885 337.563 158.265 342.119C159.646 346.676 164.46 349.251 169.017 347.87Z" fill="#565778"/>
</svg>
