<svg width="568" height="568" viewBox="0 0 568 568" fill="none" xmlns="http://www.w3.org/2000/svg">
<g clip-path="url(#clip0_8_93)">
<path d="M422.931 249.502H397.251V191.866C397.251 185.532 396.012 179.22 393.681 173.356C395.958 168.816 397.248 163.699 397.248 158.283V113.745C397.247 95.1386 382.109 80 363.501 80H204.932C186.324 80 171.186 95.1386 171.186 113.745V158.282C171.186 163.698 172.476 168.815 174.753 173.355C172.421 179.219 171.183 185.532 171.183 191.866V249.502H145.069C132.914 249.502 123.025 260.61 123.025 274.262V335.39C123.025 349.043 132.914 360.151 145.069 360.151H171.183V371.292C171.183 384.396 176.253 396.334 184.526 405.264H182.563C165.803 405.264 152.674 423.435 152.674 446.631C152.674 469.828 165.803 487.999 182.563 487.999H247.454C251.89 487.999 255.486 484.403 255.486 479.967C255.486 475.531 251.89 471.935 247.454 471.935H182.563C174.65 471.935 168.738 458.576 168.738 446.631C168.738 434.687 174.65 421.328 182.563 421.328H221.113C221.149 421.328 221.186 421.33 221.222 421.33H347.211C347.247 421.33 347.283 421.328 347.319 421.328H385.87C393.783 421.328 399.696 434.687 399.696 446.631C399.696 458.576 393.783 471.935 385.87 471.935H319.139C314.703 471.935 311.107 475.531 311.107 479.967C311.107 484.403 314.703 487.999 319.139 487.999H385.87C402.631 487.999 415.76 469.828 415.76 446.631C415.76 423.435 402.631 405.264 385.87 405.264H383.907C392.18 396.334 397.25 384.396 397.25 371.292V360.151H422.93C435.085 360.151 444.973 349.042 444.973 335.39V274.262C444.973 260.609 435.085 249.502 422.931 249.502V249.502ZM342.633 405.264H225.366V388.817C225.366 362.244 251.669 340.625 283.999 340.625C316.33 340.625 342.633 362.244 342.633 388.817V405.264ZM283.999 324.561C242.812 324.561 209.302 353.386 209.302 388.817V403.102C196.431 398.264 187.246 385.832 187.246 371.291V191.865C187.246 190.29 187.364 188.738 187.573 187.207C192.648 190.265 198.588 192.027 204.932 192.027H210.7V272.211C210.7 285.724 221.693 296.717 235.205 296.717C248.717 296.717 259.711 285.724 259.711 272.211V192.027H308.287V272.211C308.287 285.724 319.281 296.717 332.793 296.717C346.305 296.717 357.298 285.724 357.298 272.211V192.027H363.501C369.845 192.027 375.784 190.265 380.859 187.207C381.068 188.738 381.185 190.29 381.185 191.865V257.471C381.185 257.492 381.182 257.512 381.182 257.533C381.182 257.554 381.185 257.574 381.185 257.595V352.056C381.185 352.077 381.182 352.097 381.182 352.118C381.182 352.139 381.185 352.159 381.185 352.18V371.29C381.185 385.994 371.794 398.543 358.696 403.263V388.816C358.697 353.386 325.188 324.561 283.999 324.561V324.561ZM226.764 192.028H243.648V272.212C243.648 276.866 239.861 280.654 235.206 280.654C230.552 280.654 226.765 276.867 226.765 272.212V192.028H226.764ZM324.352 192.028H341.236V272.212C341.236 276.866 337.449 280.654 332.794 280.654C328.14 280.654 324.353 276.867 324.353 272.212V192.028H324.352ZM187.251 113.745C187.251 103.995 195.182 96.0639 204.933 96.0639H363.502C373.252 96.0639 381.184 103.995 381.184 113.745V158.282C381.184 168.032 373.252 175.964 363.502 175.964H349.268H316.32H251.68H218.732H204.932C195.182 175.964 187.25 168.033 187.25 158.282V113.745H187.251ZM145.069 344.087C141.884 344.087 139.089 340.022 139.089 335.39V274.262C139.089 269.63 141.884 265.565 145.069 265.565H171.183V344.087H145.069ZM428.91 335.39C428.91 340.022 426.115 344.087 422.93 344.087H397.25V265.565H422.93C426.115 265.565 428.91 269.63 428.91 274.262V335.39Z" fill="#565778"/>
<path d="M211.311 127.924H320.453C324.89 127.924 328.485 124.328 328.485 119.892C328.485 115.456 324.89 111.86 320.453 111.86H211.311C206.875 111.86 203.279 115.456 203.279 119.892C203.279 124.328 206.875 127.924 211.311 127.924Z" fill="#565778"/>
<path d="M356.864 127.778C361.3 127.778 364.896 124.182 364.896 119.746C364.896 115.31 361.3 111.714 356.864 111.714C352.429 111.714 348.833 115.31 348.833 119.746C348.833 124.182 352.429 127.778 356.864 127.778Z" fill="#565778"/>
<path d="M283.999 487.744C288.435 487.744 292.031 484.148 292.031 479.712C292.031 475.276 288.435 471.68 283.999 471.68C279.563 471.68 275.967 475.276 275.967 479.712C275.967 484.148 279.563 487.744 283.999 487.744Z" fill="#565778"/>
</g>
<defs>
<clipPath id="clip0_8_93">
<rect width="408" height="408" fill="white" transform="translate(80 80)"/>
</clipPath>
</defs>
</svg>
