<svg width="568" height="568" viewBox="0 0 568 568" fill="none" xmlns="http://www.w3.org/2000/svg">
<g clip-path="url(#clip0_8_94)">
<path d="M500.213 137.231L474.477 133.741C469.553 133.07 465.02 136.523 464.354 141.446C463.686 146.369 467.135 150.902 472.059 151.569L490.009 154.004V479.911L364.96 462.599V346.238C368.511 346.876 372.868 347.969 377.386 349.845C391.567 355.735 400.549 366.413 404.081 381.585C407.596 396.665 412.772 409.367 419.49 419.468C417.727 423.121 416.74 427.214 416.74 431.534C416.74 446.899 429.239 459.399 444.604 459.399C459.969 459.399 472.469 446.899 472.469 431.534C472.469 416.169 459.969 403.669 444.604 403.669C440.287 403.669 436.196 404.656 432.544 406.417C427.957 398.587 424.228 388.759 421.605 377.502C416.752 356.662 403.848 341.352 384.287 333.229C377.018 330.211 370.098 328.746 364.961 328.035V136.67L391.981 140.411C396.905 141.089 401.445 137.655 402.126 132.733C402.808 127.813 399.37 123.27 394.449 122.59L364.068 118.383V77.7651C364.068 72.7966 360.04 68.7692 355.072 68.7692H212.03C207.062 68.7692 203.034 72.7966 203.034 77.7651V103.126L67.9281 119.279C63.4049 119.82 60 123.657 60 128.211V472.304C60 477.611 64.7876 481.867 70.0637 481.236L213.103 464.133C217.627 463.593 221.032 459.756 221.032 455.201V430.853H346.968V470.435C346.968 474.927 350.282 478.73 354.73 479.346L497.771 499.149C503.098 499.888 508 495.611 508 490.239V146.146C508 141.644 504.674 137.836 500.213 137.231V137.231ZM454.476 431.534C454.476 436.978 450.048 441.407 444.603 441.407C439.159 441.407 434.73 436.979 434.73 431.534C434.73 426.09 439.159 421.661 444.603 421.661C450.048 421.661 454.476 426.091 454.476 431.534ZM346.074 86.7609V295.488C317.039 293.583 310.575 272.144 303.852 238.242C300.416 220.912 297.17 204.542 287.829 193.285C281.435 185.581 272.925 181.287 263.218 180.869C247.912 180.207 232.154 189.146 221.032 197.356V111.109C221.032 111.073 221.026 111.038 221.026 111.002V86.7609H346.074ZM77.9918 462.168V136.196L203.034 121.246V266.337C194.802 302.468 169.333 320.366 146.664 329.218C141.77 321.185 132.927 315.811 122.852 315.811C107.487 315.811 94.9877 328.311 94.9877 343.676C94.9877 359.041 107.487 371.541 122.852 371.541C137.096 371.541 148.869 360.796 150.513 346.987C166.529 341.06 187.598 329.822 203.034 309.049V421.857C203.034 421.895 203.04 421.932 203.04 421.971V447.218L77.9918 462.168ZM132.725 343.675C132.725 349.118 128.297 353.548 122.852 353.548C117.408 353.548 112.979 349.119 112.979 343.675C112.979 338.231 117.408 333.802 122.852 333.802C128.297 333.802 132.725 338.232 132.725 343.675ZM221.032 412.861V220.71C229.355 212.916 248.119 198.235 262.442 198.842C267.126 199.045 270.793 200.929 273.982 204.772C280.41 212.518 283.224 226.712 286.203 241.741C289.528 258.508 292.965 275.845 302.096 289.704C311.822 304.467 326.597 312.442 346.074 313.497V412.861H221.032V412.861Z" fill="#565778"/>
<path d="M433.236 145.953C438.204 145.953 442.232 141.925 442.232 136.957C442.232 131.989 438.204 127.961 433.236 127.961C428.268 127.961 424.24 131.989 424.24 136.957C424.24 141.925 428.268 145.953 433.236 145.953Z" fill="#565778"/>
</g>
<defs>
<clipPath id="clip0_8_94">
<rect width="448" height="448" fill="white" transform="translate(60 60)"/>
</clipPath>
</defs>
</svg>
