<svg width="568" height="568" viewBox="0 0 568 568" fill="none" xmlns="http://www.w3.org/2000/svg">
<g clip-path="url(#clip0_8_95)">
<path d="M116.444 155.289H227.745C254.999 155.289 277.172 133.116 277.172 105.861C277.172 78.6067 254.999 56.4339 227.745 56.4339H206.463C186.379 56.4339 175.446 68.9028 170.693 79.3313H116.444C106.313 79.3313 96.7771 83.2789 89.582 90.4607C82.4134 97.6435 78.4658 107.178 78.4658 117.31C78.4649 138.251 95.5029 155.289 116.444 155.289V155.289ZM102.959 103.839C106.569 100.235 111.358 98.2508 116.443 98.2508H177.433C181.931 98.2508 185.807 95.0837 186.703 90.6755C186.83 90.0502 190.007 75.3535 206.462 75.3535H227.744C244.566 75.3535 258.252 89.0389 258.252 105.861C258.252 122.684 244.566 136.369 227.744 136.369H116.444C105.935 136.369 97.3854 127.819 97.3854 117.31C97.3844 112.225 99.3691 107.435 102.959 103.839V103.839Z" fill="#565778"/>
<path d="M393.965 182.722H458.838C473.219 182.722 484.919 170.453 484.919 155.375C484.919 148.21 482.295 141.434 477.515 136.279C472.559 130.958 465.926 128.027 458.838 128.027H429.811C426.132 121.036 418.831 113.666 406.369 113.666H393.965C375.904 113.666 361.21 129.155 361.21 148.194C361.21 167.232 375.904 182.722 393.965 182.722V182.722ZM393.965 132.585H406.369C411.85 132.585 413.526 137.215 414.002 139.296C414.751 143.863 418.653 146.946 423.289 146.946H458.837C461.237 146.946 462.894 148.34 463.654 149.157C465.167 150.788 466 152.995 466 155.374C466 160.021 462.787 163.801 458.838 163.801H393.965C386.337 163.801 380.129 156.799 380.129 148.193C380.129 139.586 386.336 132.585 393.965 132.585V132.585Z" fill="#565778"/>
<path d="M461.743 409.756C466.967 409.756 471.203 405.521 471.203 400.297C471.203 395.072 466.967 390.837 461.743 390.837C456.518 390.837 452.283 395.072 452.283 400.297C452.283 405.521 456.518 409.756 461.743 409.756Z" fill="#565778"/>
<path d="M521.944 508.01C524.24 505.135 524.657 501.061 522.973 497.783L490.084 433.777C487.696 429.129 481.992 427.297 477.346 429.686C472.7 432.074 470.867 437.776 473.256 442.424L499.062 492.647H244.087L325.742 324.124L359.575 351.721C361.314 353.139 363.434 353.85 365.555 353.85C367.59 353.85 369.629 353.195 371.333 351.88L409.531 322.412L433.36 367.36C435.807 371.976 441.535 373.734 446.149 371.287C450.765 368.84 452.523 363.114 450.076 358.499L374.165 215.311C372.495 212.162 369.171 210.225 365.635 210.284C362.072 210.348 358.848 212.41 357.294 215.617L260.402 415.587L172.007 205.54C170.506 201.972 167.025 199.688 163.112 199.75C159.242 199.822 155.806 202.244 154.438 205.865L115.524 308.855C115.392 309.155 115.276 309.46 115.177 309.769L44.7049 496.28C43.4855 499.506 43.8573 502.875 45.7492 505.95C47.9449 509.3 50.9446 511.566 54.9725 511.566H514.539C517.395 511.566 520.161 510.239 521.944 508.01V508.01ZM366.188 240.653L400.542 305.454L365.72 332.317L334.222 306.624L366.188 240.653ZM223.919 490.882C223.64 491.458 223.426 492.05 223.271 492.647H66.3025L128.407 328.287L157.137 351.722C158.876 353.14 160.995 353.851 163.117 353.851C165.152 353.851 167.19 353.196 168.894 351.881L202.239 326.158L249.416 438.261L223.919 490.882ZM163.76 234.721L194.648 308.119L163.28 332.317L135.458 309.623L163.76 234.721Z" fill="#565778"/>
</g>
<defs>
<clipPath id="clip0_8_95">
<rect width="480" height="480" fill="white" transform="translate(44 44)"/>
</clipPath>
</defs>
</svg>
