<svg width="568" height="568" viewBox="0 0 568 568" fill="none" xmlns="http://www.w3.org/2000/svg">
<path d="M431.539 249.503H314.448V232.331H379.616C381.42 232.331 383.179 231.776 384.655 230.74L436.577 194.321C438.933 192.669 440.328 189.967 440.314 187.089C440.299 184.212 438.873 181.525 436.5 179.899L384.578 144.308C383.117 143.306 381.387 142.77 379.616 142.77H314.448V125.473H372.161C377.008 125.473 380.936 121.544 380.936 116.698V70.7751C380.936 65.9286 377.008 62 372.161 62H196.074C191.228 62 187.299 65.9286 187.299 70.7751V116.698C187.299 121.544 191.228 125.473 196.074 125.473H253.787V142.77H136.697C131.851 142.77 127.922 146.699 127.922 151.545V223.556C127.922 228.402 131.851 232.331 136.697 232.331H253.787V249.503H188.619C186.816 249.503 185.056 250.058 183.58 251.094L131.658 287.513C129.302 289.165 127.907 291.867 127.922 294.745C127.937 297.622 129.363 300.309 131.736 301.935L183.658 337.527C185.119 338.528 186.848 339.064 188.619 339.064H253.787V497.225C253.787 502.071 257.716 506 262.562 506H305.674C310.521 506 314.449 502.071 314.449 497.225V339.064H431.539C436.386 339.064 440.314 335.135 440.314 330.289V258.278C440.314 253.432 436.385 249.503 431.539 249.503V249.503ZM204.85 79.5501H363.386V107.923H305.673H262.561H204.849V79.5501H204.85ZM271.337 125.473H296.899V142.77H271.337V125.473ZM145.472 196.413H216.55C221.397 196.413 225.325 192.484 225.325 187.638C225.325 182.791 221.397 178.863 216.55 178.863H145.472V160.32H262.562H305.674H376.899L416.141 187.219L376.848 214.781H305.675H262.563H145.472V196.413ZM271.337 232.331H296.899V249.503H271.337V232.331ZM296.898 488.45H271.336V339.064H296.898V488.45ZM305.673 321.514H262.561H191.337L152.095 294.615L191.388 267.053H262.56H305.672H422.764V285.454H351.686C346.84 285.454 342.911 289.382 342.911 294.229C342.911 299.075 346.84 303.004 351.686 303.004H422.764V321.514H305.673Z" fill="#565778"/>
<path d="M255.774 195.948C260.62 195.948 264.549 192.019 264.549 187.173C264.549 182.326 260.62 178.398 255.774 178.398C250.928 178.398 246.999 182.326 246.999 187.173C246.999 192.019 250.928 195.948 255.774 195.948Z" fill="#565778"/>
<path d="M312.153 302.126C316.999 302.126 320.928 298.197 320.928 293.351C320.928 288.505 316.999 284.576 312.153 284.576C307.307 284.576 303.378 288.505 303.378 293.351C303.378 298.197 307.307 302.126 312.153 302.126Z" fill="#565778"/>
</svg>
