<svg width="568" height="568" viewBox="0 0 568 568" fill="none" xmlns="http://www.w3.org/2000/svg">
<g clip-path="url(#clip0_8_97)">
<path d="M513.908 461.995C513.738 460.797 509.567 432.322 494.696 402.932C474.335 362.688 443.745 340.382 406.234 338.422C350.845 335.528 323.102 357.367 311.558 370.509C283.211 345.441 247.458 318.455 189.657 316.373L173.069 262.443L245.141 240.274C249.953 238.794 252.747 233.53 251.264 228.71C246.953 214.698 239.02 202.053 228.322 192.144C224.572 188.672 218.72 188.895 215.247 192.645C211.775 196.393 211.998 202.246 215.747 205.719C221.794 211.321 226.706 218.052 230.224 225.502L87.3512 269.448C82.5466 238.584 100.632 207.284 130.154 198.203L146.069 193.215C150.945 191.686 153.659 186.495 152.13 181.619C150.603 176.743 145.417 174.032 140.535 175.557L124.667 180.531C104.321 186.789 87.5455 201.038 77.4283 220.652C67.2714 240.344 65.2545 262.815 71.7476 283.927C73.227 288.739 78.4896 291.531 83.3108 290.05L155.383 267.882L170.414 316.753C125.886 320.563 90.6181 345.741 67.944 390.183C49.7758 425.791 46.1869 460.923 46.0435 462.401C45.7909 464.998 46.6467 467.582 48.4009 469.514C50.1551 471.445 52.643 472.548 55.2521 472.548H504.748C507.428 472.548 509.978 471.385 511.736 469.361C513.492 467.337 514.286 464.649 513.908 461.995V461.995ZM66.0048 454.045C68.2558 441.793 73.4324 420.14 84.4257 398.594C104.959 358.35 135.75 336.962 175.999 334.91L190.722 382.776C182.108 387.312 172.916 394.684 168.397 403.58C165.845 408.605 167.926 415.012 173.475 416.868C178.339 418.496 182.214 415.937 184.864 412.094C191.591 402.342 202.183 396.058 213.928 394.605C220.775 393.759 227.637 394.511 234.338 396.002C240.416 397.355 247.114 394.71 247.233 387.514C247.375 378.921 238.119 377.621 231.569 376.643C223.844 375.49 215.943 375.416 208.242 376.796L195.454 335.222C247.6 339.071 278.796 365.814 306.144 390.495C306.531 390.917 347.155 435.051 384.792 435.051C389.892 435.051 394.173 431.206 394.336 426.1C394.499 420.993 390.492 416.72 385.384 416.557C363.164 415.843 345.311 400.884 325.278 382.843C333.749 373.039 356.474 354.352 405.268 356.899C436.083 358.509 460.546 376.67 477.978 410.878C486.348 427.303 491.071 443.756 493.474 454.044H66.0048V454.045Z" fill="#565778"/>
<path d="M184.473 189.629C189.583 189.629 193.725 185.487 193.725 180.377C193.725 175.268 189.583 171.125 184.473 171.125C179.363 171.125 175.221 175.268 175.221 180.377C175.221 185.487 179.363 189.629 184.473 189.629Z" fill="#565778"/>
<path d="M301.302 129.071H336.511C338.106 137.686 341.382 149.908 347.668 156.194C355.954 164.481 369.252 169.428 383.239 169.428H424.873C451.401 169.428 472.984 147.846 472.984 121.318C472.984 108.466 467.98 96.3834 458.894 87.2969C449.807 78.2114 437.725 73.207 424.873 73.207H420.588C414.737 56.9363 399.021 45.4508 381.211 45.4508H301.302C290.132 45.4508 279.633 49.7974 271.74 57.6903C263.842 65.5897 259.492 76.0908 259.492 87.2599C259.491 110.315 278.248 129.071 301.302 129.071V129.071ZM284.823 70.7755C289.222 66.378 295.074 63.9558 301.302 63.9558H381.211C392.681 63.9558 402.592 72.4927 404.266 83.8126C404.936 88.3507 408.832 91.712 413.419 91.712H424.873C432.782 91.712 440.218 94.7911 445.809 100.382C451.4 105.973 454.479 113.409 454.479 121.319C454.479 137.644 441.198 150.925 424.873 150.925H383.239C374.188 150.925 365.572 147.931 360.752 143.111C357.545 139.903 354.295 125.68 353.639 119.2C353.32 114.418 349.209 110.567 344.408 110.567H301.302C288.451 110.567 277.996 100.112 277.996 87.2608C277.995 81.0342 280.42 75.1786 284.823 70.7755V70.7755Z" fill="#565778"/>
</g>
<defs>
<clipPath id="clip0_8_97">
<rect width="468" height="468" fill="white" transform="translate(46 25)"/>
</clipPath>
</defs>
</svg>
