<svg width="568" height="568" viewBox="0 0 568 568" fill="none" xmlns="http://www.w3.org/2000/svg">
<path d="M462.298 164.19C459.746 160.295 454.52 159.206 450.624 161.759C446.73 164.312 445.641 169.538 448.193 173.433C470.082 206.834 482.137 246.101 482.137 284C482.137 336.924 461.528 386.68 424.103 424.103C386.68 461.528 336.924 482.137 284 482.137C231.076 482.137 181.32 461.528 143.897 424.103C106.472 386.68 85.8627 336.924 85.8627 284C85.8627 231.076 106.472 181.32 143.897 143.897C181.32 106.472 231.076 85.8627 284 85.8627C322.831 85.8627 364.357 99.0132 397.93 121.942C401.775 124.568 407.02 123.581 409.647 119.735C412.273 115.889 411.284 110.643 407.44 108.018C370.599 82.857 326.761 69 284 69C226.572 69 172.582 91.3642 131.972 131.972C91.3642 172.581 69 226.572 69 284C69 341.428 91.3642 395.419 131.972 436.028C172.582 476.636 226.572 499 284 499C341.428 499 395.418 476.636 436.028 436.028C476.636 395.419 499 341.428 499 284C499 242.856 485.966 200.306 462.298 164.19Z" fill="#565778"/>
<path d="M410.593 155.958C378.031 123.762 333.3 103.849 284 103.849C234.422 103.849 189.46 123.982 156.853 156.499C156.198 156.986 155.633 157.562 155.159 158.227C123.434 190.717 103.85 235.112 103.85 284C103.85 332.775 123.343 377.077 154.938 409.547C155.406 410.206 155.963 410.778 156.611 411.261C189.237 443.919 234.3 464.15 284 464.15C333.751 464.15 378.854 443.877 411.488 411.16C412.139 410.675 412.698 410.102 413.168 409.439C444.7 376.979 464.151 332.722 464.151 284C464.151 234.851 444.358 190.244 412.336 157.708C411.848 157.032 411.267 156.449 410.593 155.958V155.958ZM446.944 273.543L350.092 253.458L406.319 175.956C429.634 202.322 444.575 236.25 446.944 273.543ZM406.999 391.277L350.092 314.542L446.944 294.457C444.598 331.389 429.927 365.023 406.999 391.277V391.277ZM121.056 294.457L217.908 314.542L161.088 391.375C138.111 365.106 123.406 331.435 121.056 294.457V294.457ZM161.27 176.422L217.909 253.459L121.056 273.543C123.412 236.469 138.189 202.72 161.27 176.422V176.422ZM367.4 366.558L318.112 332.2L320.456 320.451L332.2 318.109L367.4 366.558ZM200.74 201.298L250.373 236.122L247.976 247.463L235.801 249.891L200.74 201.298ZM308.707 275.451H259.294L284 155.648L308.707 275.451ZM244.181 265.414L240.816 281.328C240.41 282.601 240.299 283.989 240.556 285.396L243.976 302.546L153.32 284L244.181 265.414ZM235.801 318.11L247.547 320.452L249.89 332.2L200.645 366.606L235.801 318.11ZM259.126 292.314H308.872L284 414.68L259.126 292.314ZM324.027 302.545L327.391 285.687C327.705 284.26 327.627 282.718 327.184 281.328L323.82 265.414L414.681 284L324.027 302.545ZM332.2 249.89L320.025 247.462L317.628 236.122L367.047 201.077L332.2 249.89ZM313.872 218.356L294.334 121.049C331.799 123.401 365.874 138.44 392.305 161.915L313.872 218.356ZM254.129 218.356L175.23 162.327C201.726 138.615 235.982 123.414 273.667 121.049L254.129 218.356ZM253.458 350.091L258.157 373.648C258.162 373.676 258.168 373.704 258.174 373.732L273.543 446.942C235.81 444.545 201.52 429.28 175.026 405.49L253.458 350.091ZM309.827 373.733C309.833 373.705 309.839 373.677 309.844 373.649L314.543 350.093L393.074 405.405C366.565 429.245 332.237 444.543 294.458 446.944L309.827 373.733Z" fill="#565778"/>
<path d="M430.917 148.255C435.573 148.255 439.348 144.48 439.348 139.824C439.348 135.167 435.573 131.392 430.917 131.392C426.26 131.392 422.485 135.167 422.485 139.824C422.485 144.48 426.26 148.255 430.917 148.255Z" fill="#565778"/>
</svg>
