<svg width="568" height="568" viewBox="0 0 568 568" fill="none" xmlns="http://www.w3.org/2000/svg">
<g clip-path="url(#clip0_9_106)">
<path d="M224.303 346.039C228.799 346.039 232.445 342.393 232.445 337.897C232.445 333.4 228.799 329.755 224.303 329.755C219.806 329.755 216.161 333.4 216.161 337.897C216.161 342.393 219.806 346.039 224.303 346.039Z" fill="#565778"/>
<path d="M359.835 346.039C364.332 346.039 367.977 342.393 367.977 337.897C367.977 333.4 364.332 329.755 359.835 329.755C355.339 329.755 351.693 333.4 351.693 337.897C351.693 342.393 355.339 346.039 359.835 346.039Z" fill="#565778"/>
<path d="M368.07 92.1417C368.07 87.6458 364.425 84 359.928 84C348.752 84 326.844 87.7069 315.637 97.6536C305.591 106.57 299.829 118.998 299.829 131.75V270.321C299.829 272.179 300.465 273.983 301.632 275.43L318.203 295.99V459.067C318.203 472.815 329.388 484 343.137 484C356.885 484 368.071 472.815 368.071 459.067V373.987C368.071 369.491 364.426 365.845 359.929 365.845C355.432 365.845 351.787 369.491 351.787 373.987V459.067C351.787 463.836 347.907 467.717 343.137 467.717C338.367 467.717 334.487 463.836 334.487 459.067V293.117C334.487 291.259 333.851 289.455 332.684 288.009L316.113 267.448V131.749C316.113 123.53 319.782 115.746 326.446 109.832C331.325 105.502 342.155 102.182 351.786 100.881V301.522C351.786 306.018 355.431 309.664 359.928 309.664C364.425 309.664 368.07 306.018 368.07 301.522V92.1417Z" fill="#565778"/>
<path d="M224.634 365.845C220.138 365.845 216.493 369.491 216.493 373.987V458.75C216.493 463.492 212.635 467.35 207.892 467.35C203.15 467.35 199.292 463.493 199.292 458.75V228.798C199.292 224.302 195.647 220.656 191.151 220.656C174.091 220.656 160.212 206.777 160.212 189.718V127.841C160.212 123.345 156.567 119.699 152.07 119.699C147.574 119.699 143.929 123.345 143.929 127.841V189.718C143.929 212.979 160.838 232.367 183.009 236.238V458.751C183.009 472.472 194.171 483.634 207.892 483.634C221.614 483.634 232.776 472.472 232.776 458.751V373.988C232.776 369.49 229.13 365.845 224.634 365.845Z" fill="#565778"/>
<path d="M264.054 119.699C259.557 119.699 255.912 123.345 255.912 127.841V189.718C255.912 206.777 241.88 220.656 224.634 220.656C220.137 220.656 216.492 224.302 216.492 228.798V301.522C216.492 306.018 220.137 309.664 224.634 309.664C229.131 309.664 232.776 306.018 232.776 301.522V236.247C255.135 232.401 272.195 213 272.195 189.718V127.841C272.195 123.344 268.549 119.699 264.054 119.699V119.699Z" fill="#565778"/>
<path d="M184.72 200.845C189.217 200.845 192.862 197.199 192.862 192.703V127.841C192.862 123.345 189.217 119.699 184.72 119.699C180.223 119.699 176.578 123.345 176.578 127.841V192.703C176.578 197.199 180.223 200.845 184.72 200.845Z" fill="#565778"/>
<path d="M231.404 200.845C235.901 200.845 239.546 197.199 239.546 192.703V127.841C239.546 123.345 235.901 119.699 231.404 119.699C226.908 119.699 223.263 123.345 223.263 127.841V192.703C223.263 197.199 226.908 200.845 231.404 200.845Z" fill="#565778"/>
</g>
<defs>
<clipPath id="clip0_9_106">
<rect width="400" height="400" fill="white" transform="translate(56 84)"/>
</clipPath>
</defs>
</svg>
